<mxfile host="app.diagrams.net" modified="2022-12-07T19:10:02.229Z" agent="5.0 (Windows NT 10.0; Win64; x64) AppleWebKit/537.36 (KHTML, like Gecko) Chrome/108.0.0.0 Safari/537.36 Edg/108.0.1462.42" etag="CGRMikBQFaVozYpEgmMO" version="20.6.0" type="github">
  <diagram id="KUD3AhoBSaxOTvVUXfZx" name="Page-1">
    <mxGraphModel dx="2062" dy="1114" grid="0" gridSize="10" guides="1" tooltips="1" connect="1" arrows="1" fold="1" page="1" pageScale="1" pageWidth="1920" pageHeight="1200" math="0" shadow="0">
      <root>
        <mxCell id="0" />
        <mxCell id="1" parent="0" />
        <mxCell id="smSqM_1HGl521U7xFa03-1" value="Заявка" style="ellipse;whiteSpace=wrap;html=1;rounded=0;shadow=0;glass=0;comic=0;strokeColor=#000000;strokeWidth=2;fillColor=#acf;gradientColor=none;fontSize=14;fontColor=#000000;align=center;" vertex="1" parent="1">
          <mxGeometry x="311" y="435" width="80" height="80" as="geometry" />
        </mxCell>
        <mxCell id="smSqM_1HGl521U7xFa03-2" value="Наряд" style="ellipse;whiteSpace=wrap;html=1;rounded=0;shadow=0;glass=0;comic=0;strokeColor=#000000;strokeWidth=2;fillColor=#acf;gradientColor=none;fontSize=14;fontColor=#000000;align=center;" vertex="1" parent="1">
          <mxGeometry x="127" y="187" width="80" height="80" as="geometry" />
        </mxCell>
        <mxCell id="smSqM_1HGl521U7xFa03-3" value="Исполнитель" style="ellipse;whiteSpace=wrap;html=1;rounded=0;shadow=0;glass=0;comic=0;strokeColor=#000000;strokeWidth=2;fillColor=#acf;gradientColor=none;fontSize=14;fontColor=#000000;align=center;" vertex="1" parent="1">
          <mxGeometry x="205" y="735" width="100" height="100" as="geometry" />
        </mxCell>
        <mxCell id="smSqM_1HGl521U7xFa03-4" value="Типовая&lt;br&gt;проблема" style="ellipse;whiteSpace=wrap;html=1;rounded=0;shadow=0;glass=0;comic=0;strokeColor=#000000;strokeWidth=2;fillColor=#acf;gradientColor=none;fontSize=14;fontColor=#000000;align=center;" vertex="1" parent="1">
          <mxGeometry x="505" y="140" width="80" height="80" as="geometry" />
        </mxCell>
        <mxCell id="smSqM_1HGl521U7xFa03-5" value="Типовая задача" style="ellipse;whiteSpace=wrap;html=1;rounded=0;shadow=0;glass=0;comic=0;strokeColor=#000000;strokeWidth=2;fillColor=#acf;gradientColor=none;fontSize=14;fontColor=#000000;align=center;" vertex="1" parent="1">
          <mxGeometry x="678" y="107" width="80" height="80" as="geometry" />
        </mxCell>
      </root>
    </mxGraphModel>
  </diagram>
</mxfile>
